<?xml version="1.0" encoding="utf-8"?>
<!-- Generator: Adobe Illustrator 15.1.0, SVG Export Plug-In . SVG Version: 6.00 Build 0)  -->
<!DOCTYPE svg PUBLIC "-//W3C//DTD SVG 1.1//EN" "http://www.w3.org/Graphics/SVG/1.1/DTD/svg11.dtd">
<svg version="1.1" id="Calque_2" xmlns="http://www.w3.org/2000/svg" xmlns:xlink="http://www.w3.org/1999/xlink" x="0px" y="0px"
	 width="235px" height="140px" viewBox="-36 -27.5 235 140" enable-background="new -36 -27.5 235 140" xml:space="preserve">
<g>
	<g>
		<path fill="#117FC2" d="M-7.266,82.121c-2.575,0-4.473-0.722-5.691-2.169c-1.22-1.449-1.826-3.573-1.826-6.382V50.923h6.012
			v22.399c0,0.514,0.027,1.009,0.086,1.484c0.058,0.475,0.194,0.861,0.404,1.17c0.208,0.305,0.548,0.455,1.016,0.455
			c0.471,0,0.829-0.15,1.038-0.451c0.209-0.302,0.346-0.69,0.398-1.169c0.052-0.48,0.078-0.976,0.078-1.489V50.923H0.26V73.57
			c0,2.809-0.606,4.941-1.826,6.382c-1.218,1.447-3.116,2.169-5.692,2.169H-7.266z"/>
		<path fill="#117FC2" d="M2.522,81.843V55.486h6.292v3.359c0.235-1.003,0.671-1.865,1.311-2.576
			c0.64-0.711,1.526-1.063,2.662-1.063c1.825,0,3.155,0.561,3.977,1.689c0.829,1.122,1.239,2.666,1.239,4.624v20.33h-6.201V62.172
			c0-0.517-0.104-0.991-0.32-1.436c-0.208-0.438-0.573-0.66-1.088-0.66c-0.482,0-0.834,0.172-1.063,0.502
			c-0.228,0.333-0.371,0.753-0.429,1.249c-0.06,0.493-0.087,0.989-0.087,1.483V81.85H2.522V81.843z"/>
		<path fill="#117FC2" d="M20.422,53.87v-5.237h6.292v5.237H20.422z M20.422,81.843V55.486h6.292v26.356H20.422z"/>
		<path fill="#117FC2" d="M32.563,81.843l-4.231-26.356h6.304l1.513,17.606l1.703-17.606h6.291l-4.301,26.356H32.563z"/>
		<path fill="#117FC2" d="M53.174,82.121c-1.872,0-3.364-0.35-4.479-1.053c-1.116-0.706-1.911-1.718-2.388-3.039
			c-0.481-1.324-0.716-2.917-0.716-4.779V62.652c0-2.446,0.704-4.302,2.104-5.563c1.409-1.259,3.339-1.89,5.798-1.89
			c5.059,0,7.587,2.483,7.587,7.446v1.918c0,2.32-0.025,3.879-0.07,4.675h-9.136v5.092c0,0.471,0.026,0.924,0.084,1.381
			c0.058,0.452,0.189,0.822,0.398,1.117c0.203,0.295,0.536,0.438,0.993,0.438c0.658,0,1.061-0.287,1.231-0.856
			c0.163-0.566,0.249-1.309,0.249-2.223v-2.531h6.251v1.496c0,1.969-0.24,3.62-0.729,4.947c-0.49,1.33-1.306,2.328-2.458,3.007
			c-1.154,0.671-2.726,1.013-4.715,1.013L53.174,82.121z M51.837,66.115h2.987v-3.546c0-0.952-0.118-1.632-0.353-2.048
			c-0.233-0.42-0.585-0.627-1.054-0.627c-0.503,0-0.895,0.201-1.17,0.6c-0.274,0.398-0.41,1.091-0.41,2.075V66.115z"/>
		<path fill="#117FC2" d="M63.365,81.843V55.486h6.397v2.937c0.306-1.019,0.84-1.815,1.615-2.39
			c0.778-0.572,1.749-0.857,2.916-0.857v5.253c-0.514,0-1.127,0.06-1.845,0.172c-0.719,0.109-1.344,0.259-1.878,0.456
			c-0.534,0.194-0.808,0.402-0.808,0.639V81.85h-6.397V81.843z"/>
		<path fill="#117FC2" d="M83.058,82.121c-5.204,0-7.799-2.634-7.799-7.906V72.12h6.327v3.091c0,0.6,0.117,1.063,0.35,1.409
			c0.235,0.341,0.606,0.509,1.123,0.509c0.912,0,1.369-0.687,1.369-2.057c0-1.144-0.241-2.006-0.717-2.574
			c-0.484-0.566-1.065-1.115-1.753-1.643l-3.36-2.582c-1.055-0.823-1.855-1.688-2.405-2.601c-0.549-0.914-0.829-2.186-0.829-3.815
			c0-1.511,0.36-2.761,1.083-3.741c0.718-0.988,1.676-1.716,2.861-2.199c1.188-0.482,2.474-0.717,3.854-0.717
			c5.106,0,7.661,2.551,7.661,7.641v0.488h-6.5v-1.004c0-0.526-0.091-1.033-0.273-1.524c-0.184-0.487-0.534-0.738-1.064-0.738
			c-0.892,0-1.337,0.472-1.337,1.412c0,0.938,0.375,1.693,1.124,2.229l3.898,2.849c1.219,0.882,2.244,1.925,3.064,3.133
			c0.828,1.204,1.24,2.808,1.24,4.81c0,2.485-0.704,4.377-2.118,5.676c-1.409,1.297-3.346,1.949-5.812,1.949L83.058,82.121z"/>
	</g>
	<g>
		<path fill="#25A747" d="M103.761,82.121c-5.205,0-7.8-2.634-7.8-7.906V72.12h6.327v3.091c0,0.6,0.114,1.063,0.349,1.409
			c0.234,0.341,0.608,0.509,1.124,0.509c0.913,0,1.37-0.687,1.37-2.057c0-1.144-0.242-2.006-0.717-2.574
			c-0.483-0.566-1.065-1.115-1.756-1.643L99.3,68.273c-1.056-0.823-1.856-1.688-2.403-2.601c-0.549-0.914-0.829-2.186-0.829-3.815
			c0-1.511,0.358-2.761,1.081-3.741c0.717-0.988,1.674-1.716,2.863-2.199c1.185-0.482,2.471-0.717,3.854-0.717
			c5.105,0,7.662,2.551,7.662,7.641v0.488h-6.503v-1.004c0-0.526-0.091-1.033-0.271-1.524c-0.183-0.487-0.535-0.738-1.064-0.738
			c-0.895,0-1.338,0.472-1.338,1.412c0,0.938,0.372,1.693,1.123,2.229l3.898,2.849c1.22,0.882,2.245,1.925,3.063,3.133
			c0.83,1.204,1.243,2.808,1.243,4.81c0,2.485-0.705,4.377-2.121,5.676c-1.405,1.297-3.346,1.949-5.811,1.949L103.761,82.121z"/>
		<path fill="#25A747" d="M118.412,82.121c-1.468,0-2.581-0.336-3.345-1.015c-0.772-0.679-1.292-1.611-1.571-2.79
			c-0.28-1.181-0.424-2.524-0.424-4.023c0-1.605,0.155-2.922,0.476-3.945c0.319-1.023,0.859-1.866,1.622-2.525
			c0.772-0.657,1.826-1.212,3.17-1.668l3.897-1.337v-2.703c0-1.418-0.463-2.128-1.387-2.128c-0.841,0-1.265,0.572-1.265,1.723v1.576
			h-6.116c-0.015-0.093-0.019-0.216-0.019-0.359v-0.501c0-2.622,0.618-4.485,1.851-5.582c1.232-1.095,3.195-1.643,5.875-1.643
			c1.41,0,2.667,0.247,3.775,0.742c1.114,0.496,1.995,1.234,2.647,2.204c0.651,0.973,0.979,2.172,0.979,3.6V81.83h-6.254v-3.131
			c-0.309,1.103-0.811,1.946-1.513,2.53c-0.706,0.589-1.507,0.881-2.408,0.881L118.412,82.121z M120.888,77.241
			c0.516,0,0.868-0.216,1.059-0.653c0.188-0.433,0.279-0.901,0.279-1.409v-7.343c-0.866,0.353-1.537,0.797-2.02,1.325
			c-0.483,0.535-0.716,1.317-0.716,2.345v3.394c0,1.558,0.468,2.334,1.406,2.334L120.888,77.241z"/>
		<path fill="#25A747" d="M131.011,81.843V55.486h6.291v3.359c0.234-1.003,0.672-1.865,1.311-2.576
			c0.64-0.711,1.525-1.063,2.66-1.063c1.827,0,3.155,0.561,3.977,1.689c0.828,1.122,1.24,2.666,1.24,4.624v20.33h-6.202V62.172
			c0-0.517-0.102-0.991-0.318-1.436c-0.208-0.438-0.573-0.66-1.088-0.66c-0.483,0-0.836,0.172-1.066,0.502
			c-0.228,0.333-0.37,0.753-0.43,1.249c-0.058,0.493-0.083,0.989-0.083,1.483V81.85h-6.291V81.843z"/>
		<path fill="#25A747" d="M154.36,82.121c-1.696,0-2.843-0.354-3.437-1.078c-0.594-0.721-0.887-1.828-0.887-3.313V61.303h-1.773
			v-4.798h1.773v-5.589h6.115v5.589h1.775v4.798h-1.775v14.952c0,0.431,0.071,0.739,0.208,0.913c0.137,0.176,0.41,0.259,0.81,0.259
			c0.28,0,0.535-0.023,0.758-0.07v4.284c-0.144,0.047-0.582,0.137-1.319,0.275c-0.734,0.135-1.485,0.203-2.248,0.203V82.121z"/>
		<path fill="#25A747" d="M167.309,82.121c-1.871,0-3.363-0.35-4.478-1.053c-1.117-0.706-1.913-1.718-2.389-3.039
			c-0.482-1.324-0.717-2.917-0.717-4.779V62.652c0-2.446,0.703-4.302,2.105-5.563c1.409-1.259,3.341-1.89,5.797-1.89
			c5.06,0,7.589,2.483,7.589,7.446v1.918c0,2.32-0.024,3.879-0.069,4.675h-9.135v5.092c0,0.471,0.026,0.924,0.086,1.381
			c0.057,0.452,0.188,0.822,0.396,1.117c0.201,0.295,0.535,0.438,0.992,0.438c0.656,0,1.061-0.287,1.23-0.856
			c0.162-0.566,0.25-1.309,0.25-2.223v-2.531h6.25v1.496c0,1.969-0.238,3.62-0.728,4.947c-0.488,1.33-1.304,2.328-2.46,3.007
			c-1.153,0.671-2.726,1.013-4.713,1.013L167.309,82.121z M163.456,54.556v-3.919l8.346-3.828v6.097L163.456,54.556z
			 M165.974,66.115h2.985v-3.546c0-0.952-0.119-1.632-0.354-2.048c-0.235-0.42-0.585-0.627-1.056-0.627
			c-0.502,0-0.892,0.201-1.166,0.6c-0.272,0.398-0.412,1.091-0.412,2.075v3.546H165.974z"/>
	</g>
	<g>
		<path fill="#255770" d="M-14.783,94.42v-5.769h1.846v5.646c0,1.089,0.75,1.897,1.787,1.897c1.036,0,1.786-0.809,1.786-1.897
			v-5.646h1.846v5.769c0,2.002-1.532,3.481-3.631,3.481C-13.25,97.901-14.783,96.422-14.783,94.42z"/>
		<path fill="#255770" d="M-6.195,91.082h1.663v0.821c0.333-0.657,0.998-0.965,1.82-0.965c1.459,0,2.463,1.018,2.463,2.531v4.291
			h-1.786v-3.898c0-0.771-0.488-1.271-1.193-1.271c-0.704,0-1.187,0.5-1.187,1.271v3.898h-1.787v-6.673L-6.195,91.082z"/>
		<path fill="#255770" d="M0.665,94.407c0-1.992,1.415-3.469,3.273-3.469c2.061,0,3.214,1.442,3.214,3.286
			c0,0.269-0.026,0.529-0.085,0.711H2.522c0.104,0.841,0.679,1.384,1.56,1.384c0.632,0,1.095-0.281,1.343-0.73l1.429,0.698
			c-0.392,0.978-1.46,1.623-2.797,1.623c-2.061,0-3.391-1.564-3.391-3.497V94.407z M2.556,93.586h2.699
			C5.183,92.877,4.674,92.4,3.931,92.4s-1.213,0.419-1.383,1.186H2.556z"/>
		<path fill="#255770" d="M9.943,95.986l1.31-0.635c0.332,0.726,0.926,1.15,1.63,1.15c0.501,0,0.783-0.222,0.783-0.601
			c0-0.28-0.215-0.464-0.646-0.587l-1.108-0.32c-1.056-0.306-1.656-1.023-1.656-1.98c0-1.234,0.997-2.082,2.465-2.082
			c1.271,0,2.282,0.646,2.686,1.748l-1.324,0.634c-0.189-0.548-0.737-0.918-1.368-0.918c-0.465,0-0.738,0.207-0.738,0.545
			c0,0.267,0.215,0.451,0.705,0.601l1.036,0.321c1.083,0.33,1.661,1.003,1.661,1.954c0,1.246-0.997,2.079-2.508,2.079
			c-1.429,0-2.558-0.743-2.941-1.917L9.943,95.986z"/>
		<path fill="#255770" d="M16.203,94.42c0-2.014,1.558-3.481,3.489-3.481c1.93,0,3.474,1.468,3.474,3.481
			c0,2.018-1.557,3.481-3.474,3.481C17.773,97.901,16.203,96.438,16.203,94.42z M21.315,94.42c0-1.062-0.666-1.829-1.63-1.829
			c-0.965,0-1.643,0.768-1.643,1.829c0,1.064,0.665,1.833,1.643,1.833S21.315,95.497,21.315,94.42z"/>
		<path fill="#255770" d="M23.942,94.407c0-1.981,1.486-3.469,3.45-3.469c1.453,0,2.641,0.822,3.032,2.057l-1.546,0.682
			c-0.229-0.671-0.782-1.086-1.486-1.086c-0.939,0-1.605,0.755-1.605,1.829c0,1.077,0.666,1.833,1.605,1.833
			c0.71,0,1.257-0.416,1.486-1.089l1.546,0.699c-0.372,1.186-1.56,2.038-3.032,2.038C25.443,97.901,23.942,96.397,23.942,94.407z"/>
		<path fill="#255770" d="M31.474,88.651h1.787v1.831h-1.787V88.651z M31.474,91.082h1.787v6.671h-1.787V91.082z"/>
		<path fill="#255770" d="M34.303,94.407c0-1.992,1.416-3.469,3.274-3.469c2.06,0,3.214,1.442,3.214,3.286
			c0,0.269-0.028,0.529-0.086,0.711h-4.543c0.104,0.841,0.677,1.384,1.558,1.384c0.632,0,1.095-0.281,1.344-0.73l1.427,0.698
			c-0.39,0.978-1.46,1.623-2.797,1.623c-2.06,0-3.391-1.564-3.391-3.497V94.407z M36.195,93.586h2.699
			c-0.072-0.709-0.581-1.186-1.324-1.186s-1.212,0.419-1.382,1.186H36.195z M37.362,87.738h2.295l-1.238,2.196H36.67L37.362,87.738
			L37.362,87.738z"/>
		<path fill="#255770" d="M42.488,95.347v-2.672h-1.097v-1.593h0.058c0.667,0,1.039-0.34,1.039-1.022v-0.488h1.785v1.511h1.528
			v1.593h-1.528v2.555c0,0.684,0.36,1.019,1.109,1.019c0.104,0,0.25-0.012,0.419-0.04v1.553c-0.236,0.038-0.563,0.07-0.836,0.07
			c-1.572,0-2.477-0.918-2.477-2.479V95.347z"/>
		<path fill="#255770" d="M46.583,94.407c0-1.992,1.413-3.469,3.273-3.469c2.059,0,3.214,1.442,3.214,3.286
			c0,0.269-0.026,0.529-0.085,0.711h-4.546c0.106,0.841,0.679,1.384,1.562,1.384c0.631,0,1.094-0.281,1.341-0.73l1.429,0.698
			c-0.393,0.978-1.46,1.623-2.796,1.623c-2.062,0-3.391-1.564-3.391-3.497V94.407z M48.472,93.586h2.701
			c-0.072-0.709-0.581-1.186-1.323-1.186c-0.745,0-1.213,0.419-1.385,1.186H48.472z M49.642,87.738h2.292l-1.237,2.196h-1.749
			L49.642,87.738L49.642,87.738z"/>
		<path fill="#255770" d="M55.989,94.42c0-1.954,1.457-3.481,3.307-3.481c0.775,0,1.428,0.255,1.867,0.713v-3.144h1.784v9.253h-1.66
			v-0.632c-0.465,0.513-1.183,0.781-1.979,0.781c-1.902,0-3.32-1.538-3.32-3.483V94.42z M61.164,94.42
			c0-1.074-0.679-1.829-1.646-1.829c-0.964,0-1.688,0.768-1.688,1.829c0,1.064,0.704,1.833,1.688,1.833
			C60.503,96.253,61.164,95.511,61.164,94.42z"/>
		<path fill="#255770" d="M64.123,95.124v-4.042h1.786v3.899c0,0.77,0.49,1.271,1.187,1.271c0.698,0,1.187-0.502,1.187-1.271v-3.899
			h1.787v6.671h-1.663v-0.82c-0.332,0.658-0.999,0.963-1.819,0.963C65.004,97.896,64.123,96.782,64.123,95.124z"/>
		<path fill="#255770" d="M73.394,93.197c0-2.715,1.903-4.695,4.473-4.695c1.917,0,3.333,1.089,3.795,2.43l-1.631,0.811
			c-0.304-0.883-1.097-1.527-2.165-1.527c-1.57,0-2.628,1.216-2.628,2.982c0,1.765,1.109,2.992,2.682,2.992
			c1.21,0,2.319-0.744,2.319-2.017v-0.025h-2.366v-1.591h4.211v0.965c0,2.98-2.131,4.374-4.164,4.374
			c-2.552,0-4.519-2.002-4.519-4.707L73.394,93.197z"/>
		<path fill="#255770" d="M83.084,91.082h1.665v1.004c0.331-0.83,0.963-1.077,1.759-1.077h0.378v1.594h-0.563
			c-0.864,0-1.458,0.572-1.458,1.564v3.594h-1.788v-6.673L83.084,91.082z"/>
		<path fill="#255770" d="M87.415,94.42c0-2.014,1.558-3.481,3.486-3.481c1.932,0,3.476,1.468,3.476,3.481
			c0,2.018-1.557,3.481-3.476,3.481C88.985,97.901,87.415,96.438,87.415,94.42z M92.533,94.42c0-1.062-0.667-1.829-1.632-1.829
			s-1.641,0.768-1.641,1.829c0,1.064,0.665,1.833,1.641,1.833C91.879,96.253,92.533,95.497,92.533,94.42z"/>
		<path fill="#255770" d="M95.291,95.124v-4.042h1.784v3.899c0,0.77,0.49,1.271,1.188,1.271s1.187-0.502,1.187-1.271v-3.899h1.788
			v6.671h-1.664v-0.82c-0.33,0.658-0.998,0.963-1.819,0.963C96.171,97.896,95.291,96.782,95.291,95.124z"/>
		<path fill="#255770" d="M102.548,91.082h1.663v0.697c0.443-0.533,1.14-0.841,1.988-0.841c1.86,0,3.307,1.527,3.307,3.481
			c0,1.958-1.415,3.481-3.321,3.481c-0.723,0-1.394-0.234-1.856-0.655v2.96h-1.789v-9.118L102.548,91.082z M107.658,94.42
			c0-1.062-0.702-1.829-1.688-1.829c-0.984,0-1.643,0.755-1.643,1.829c0,1.077,0.678,1.833,1.643,1.833
			S107.658,95.497,107.658,94.42z"/>
		<path fill="#255770" d="M110.287,94.407c0-1.992,1.418-3.469,3.273-3.469c2.063,0,3.216,1.442,3.216,3.286
			c0,0.269-0.027,0.529-0.085,0.711h-4.546c0.106,0.841,0.679,1.384,1.558,1.384c0.634,0,1.096-0.281,1.345-0.73l1.427,0.698
			c-0.389,0.978-1.458,1.623-2.797,1.623c-2.06,0-3.391-1.564-3.391-3.497V94.407z M112.181,93.586h2.697
			c-0.072-0.709-0.583-1.186-1.324-1.186c-0.743,0-1.212,0.419-1.381,1.186H112.181z"/>
		<path fill="#255770" d="M120.088,88.651h1.415l3.996,5.412v-5.412h1.848v9.102h-1.431l-3.982-5.535v5.535h-1.846V88.651z"/>
		<path fill="#255770" d="M128.526,94.407c0-1.992,1.413-3.469,3.273-3.469c2.059,0,3.214,1.442,3.214,3.286
			c0,0.269-0.025,0.529-0.085,0.711h-4.545c0.104,0.841,0.679,1.384,1.558,1.384c0.634,0,1.096-0.281,1.343-0.73l1.429,0.698
			c-0.392,0.978-1.461,1.623-2.796,1.623c-2.063,0-3.391-1.564-3.391-3.497V94.407z M130.418,93.586h2.697
			c-0.07-0.709-0.58-1.186-1.322-1.186c-0.743,0-1.214,0.419-1.383,1.186H130.418z M131.584,87.738h2.293l-1.238,2.196h-1.747
			L131.584,87.738z"/>
		<path fill="#255770" d="M135.79,94.42c0-2.014,1.556-3.481,3.488-3.481c1.929,0,3.476,1.468,3.476,3.481
			c0,2.018-1.56,3.481-3.476,3.481C137.36,97.901,135.79,96.438,135.79,94.42z M140.908,94.42c0-1.062-0.666-1.829-1.63-1.829
			c-0.967,0-1.646,0.768-1.646,1.829c0,1.064,0.666,1.833,1.646,1.833C140.255,96.253,140.908,95.497,140.908,94.42z"/>
		<path fill="#255770" d="M143.406,95.986l1.308-0.635c0.335,0.726,0.928,1.15,1.632,1.15c0.503,0,0.782-0.222,0.782-0.601
			c0-0.28-0.214-0.464-0.646-0.587l-1.106-0.32c-1.058-0.306-1.655-1.023-1.655-1.98c0-1.234,0.994-2.082,2.463-2.082
			c1.272,0,2.282,0.646,2.687,1.748l-1.322,0.634c-0.19-0.548-0.736-0.918-1.371-0.918c-0.462,0-0.737,0.207-0.737,0.545
			c0,0.267,0.216,0.451,0.706,0.601l1.034,0.321c1.085,0.33,1.665,1.003,1.665,1.954c0,1.246-0.998,2.079-2.511,2.079
			c-1.428,0-2.554-0.743-2.94-1.917L143.406,95.986z"/>
		<path fill="#255770" d="M149.658,95.973c0-1.123,0.75-1.885,2.308-2.14l1.8-0.292v-0.183c0-0.501-0.419-0.893-1.083-0.893
			c-0.665,0-1.153,0.392-1.367,0.978l-1.429-0.697c0.379-1.115,1.5-1.808,2.881-1.808c1.645,0,2.785,0.991,2.785,2.42v4.402h-1.663
			v-0.627c-0.508,0.528-1.127,0.768-1.949,0.768c-1.4,0-2.275-0.722-2.275-1.929H149.658z M152.293,96.561
			c0.879,0,1.473-0.647,1.473-1.469v-0.21l-1.473,0.268c-0.509,0.101-0.782,0.321-0.782,0.758c0,0.419,0.334,0.647,0.782,0.647
			V96.561z"/>
		<path fill="#255770" d="M156.858,91.082h1.661v0.821c0.334-0.657,0.998-0.965,1.818-0.965c1.462,0,2.467,1.018,2.467,2.531v4.291
			h-1.788v-3.898c0-0.771-0.49-1.271-1.193-1.271c-0.702,0-1.187,0.5-1.187,1.271v3.898h-1.786v-6.673L156.858,91.082z"/>
		<path fill="#255770" d="M164.636,95.347v-2.672h-1.095v-1.593h0.059c0.664,0,1.036-0.34,1.036-1.022v-0.488h1.788v1.511h1.524
			v1.593h-1.524v2.555c0,0.684,0.357,1.019,1.106,1.019c0.107,0,0.248-0.012,0.418-0.04v1.553c-0.234,0.038-0.562,0.07-0.834,0.07
			c-1.572,0-2.479-0.918-2.479-2.479V95.347z"/>
		<path fill="#255770" d="M168.731,94.407c0-1.992,1.415-3.469,3.271-3.469c2.063,0,3.214,1.442,3.214,3.286
			c0,0.269-0.024,0.529-0.083,0.711h-4.544c0.103,0.841,0.678,1.384,1.557,1.384c0.634,0,1.097-0.281,1.344-0.73l1.429,0.698
			c-0.392,0.978-1.46,1.623-2.799,1.623c-2.059,0-3.389-1.564-3.389-3.497V94.407z M170.622,93.586h2.699
			c-0.073-0.709-0.582-1.186-1.323-1.186c-0.744,0-1.213,0.419-1.381,1.186H170.622z M171.788,87.738h2.298l-1.24,2.196h-1.748
			L171.788,87.738z"/>
	</g>
	<g>
		<path fill="#117FC2" d="M80.67-15.627c0.352,4.116,0.629,8.619,0.793,13.392c3.347-0.075,6.549-0.412,9.508-0.972
			c-1.167-4.451-2.894-8.439-4.961-11.738c-1.72-0.413-3.506-0.645-5.348-0.682H80.67z"/>
		<path fill="#117FC2" d="M79.54-15.627c-1.929,0.045-3.807,0.307-5.609,0.764c-1.886,3.284-3.466,7.256-4.543,11.671
			c2.919,0.553,6.069,0.882,9.36,0.957C78.92-7.008,79.188-11.511,79.54-15.627z"/>
		<path fill="#117FC2" d="M93.702-3.804c2.304-0.577,4.43-1.302,6.316-2.141c-3.105-3.965-7.378-6.979-12.293-8.529
			c2.512,3.051,4.558,6.666,5.977,10.661V-3.804z"/>
		<path fill="#117FC2" d="M66.784-3.753c1.317-3.987,3.204-7.586,5.53-10.638c-4.817,1.572-9,4.548-12.061,8.447
			C62.2-5.076,64.398-4.335,66.784-3.753z"/>
		<g>
			<path d="M84.493,14L84.493,14c-1.706,3.705-2.597,7.729-2.597,11.805v24.121c10.475-2.617,20.665-5.169,30.71-7.691V20.081
				c0-2.488,0.78-4.914,2.231-6.933l5.543-7.722c-9.187,2.229-22.511,3.51-29.423,4.062c-2.812,0.226-5.292,1.954-6.473,4.52
				L84.493,14z"/>
			<path fill="#77B484" d="M120.381,5.42l-5.543,7.722c-1.451,2.017-2.231,4.451-2.231,6.933v22.152
				c-10.045,2.516-20.235,5.065-30.71,7.691v-24.12c0-4.077,0.884-8.102,2.597-11.805c1.183-2.566,3.659-4.294,6.474-4.519
				c6.903-0.552,20.228-1.833,29.422-4.062"/>
		</g>
		<path fill="#117FC2" d="M82.974,12.182c1.438-3.111,4.445-5.207,7.857-5.485c0.523-0.044,1.085-0.09,1.676-0.142
			c-0.158-2.624-0.501-5.177-1.019-7.6c-3.075,0.891-6.426,1.421-9.936,1.534c0.061,2.259,0.113,11.842,0.127,15.036
			c0.367-1.144,0.794-2.266,1.294-3.351V12.182z"/>
		<path fill="#117FC2" d="M69.622,6.697c3.411,0.278,6.417,2.374,7.854,5.485c0.45,0.966,0.837,1.968,1.182,2.977
			c0-3.793-0.058-12.559,0-14.662c-3.44-0.12-6.726-0.643-9.755-1.505c-0.479,2.417-0.801,4.955-0.95,7.563
			c0.584,0.052,1.145,0.097,1.669,0.134V6.697z"/>
		<path fill="#117FC2" d="M64.809,6.278c0.217-2.833,0.69-5.572,1.407-8.16c-2.402-0.892-4.601-2.005-6.538-3.299
			c-2.2,3.027-3.734,6.575-4.406,10.413C58.645,5.659,61.93,6.009,64.809,6.278z"/>
		<path fill="#117FC2" d="M104.998,5.255c-0.671-3.846-2.206-7.399-4.414-10.435c-1.868,1.249-3.978,2.333-6.284,3.208
			c0.787,2.612,1.31,5.372,1.543,8.236c2.775-0.261,5.926-0.598,9.155-1.001V5.255z"/>
		<g>
			<path fill="#117FC2" d="M75.933,14L75.933,14c1.708,3.705,2.598,7.729,2.598,11.805v24.121
				c-10.473-2.617-20.665-5.169-30.711-7.691V20.081c0-2.488-0.779-4.914-2.231-6.933L40.046,5.42
				c9.187,2.229,22.511,3.509,29.424,4.063c2.814,0.224,5.289,1.953,6.471,4.518H75.933z"/>
			<path fill="#117FC2" d="M40.046,5.42c9.187,2.229,22.511,3.509,29.424,4.063c2.814,0.224,5.289,1.953,6.471,4.518
				c1.706,3.705,2.598,7.729,2.598,11.805v24.121c-10.477-2.617-20.665-5.169-30.712-7.691V20.081c0-2.488-0.779-4.914-2.229-6.933
				L40.046,5.42"/>
		</g>
	</g>
</g>
</svg>
