<?xml version="1.0" encoding="utf-8"?>
<!-- Generator: Adobe Illustrator 15.1.0, SVG Export Plug-In . SVG Version: 6.00 Build 0)  -->
<!DOCTYPE svg PUBLIC "-//W3C//DTD SVG 1.1//EN" "http://www.w3.org/Graphics/SVG/1.1/DTD/svg11.dtd">
<svg version="1.1" id="Layer_1" xmlns="http://www.w3.org/2000/svg" xmlns:xlink="http://www.w3.org/1999/xlink" x="0px" y="0px"
	 width="35px" height="35px" viewBox="0 0 35 35" enable-background="new 0 0 35 35" xml:space="preserve">
<g>
	<g>
		<path fill="#FFFFFF" d="M14.107,26.466c-7.022,0-12.733-5.713-12.733-12.732C1.374,6.711,7.085,1,14.107,1
			c7.02,0,12.732,5.711,12.732,12.733c0,3.234-1.216,6.319-3.42,8.683C21.019,24.99,17.625,26.466,14.107,26.466z M14.107,4.322
			c-5.19,0-9.412,4.222-9.412,9.412c0,5.189,4.222,9.41,9.412,9.41c2.638,0,5.082-1.063,6.883-2.992
			c1.63-1.749,2.527-4.027,2.527-6.418C23.518,8.543,19.297,4.322,14.107,4.322z"/>
	</g>
	<g>
		<path fill="#FFFFFF" d="M30.795,33.505c-0.668,0-1.336-0.254-1.847-0.762L20.1,23.95c-1.026-1.02,2.667-4.738,3.694-3.718
			l8.847,8.793c1.027,1.02,1.032,2.679,0.013,3.706C32.142,33.247,31.468,33.505,30.795,33.505z"/>
	</g>
</g>
</svg>
