<?xml version="1.0" encoding="utf-8"?>
<!-- Generator: Adobe Illustrator 15.1.0, SVG Export Plug-In . SVG Version: 6.00 Build 0)  -->
<!DOCTYPE svg PUBLIC "-//W3C//DTD SVG 1.1//EN" "http://www.w3.org/Graphics/SVG/1.1/DTD/svg11.dtd">
<svg version="1.1" id="Layer_1" xmlns="http://www.w3.org/2000/svg" xmlns:xlink="http://www.w3.org/1999/xlink" x="0px" y="0px"
	 width="219px" height="1595px" viewBox="0 0 219 1595" enable-background="new 0 0 219 1595" xml:space="preserve">
<rect x="189.022" y="71.971" fill="#117FC2" width="30" height="51.029"/>
<g>
	<circle fill="none" stroke="#117FC2" stroke-width="3" stroke-miterlimit="10" cx="288.132" cy="-17.55" r="6.638"/>
	<path fill="none" stroke="#117FC2" stroke-width="3" stroke-miterlimit="10" d="M277.854,1.716v-6.203
		c0-5.678,4.601-6.078,10.277-6.078s10.278,0.4,10.278,6.078v6.203"/>
</g>
<g>
	<g>
		<path fill="#117FC2" d="M203.704,5.23c2.558,0,4.638,2.081,4.638,4.638s-2.08,4.637-4.638,4.637s-4.638-2.08-4.638-4.637
			S201.146,5.23,203.704,5.23 M203.704,3.23c-3.666,0-6.638,2.972-6.638,6.638c0,3.666,2.972,6.637,6.638,6.637
			s6.638-2.972,6.638-6.637C210.342,6.202,207.37,3.23,203.704,3.23L203.704,3.23z"/>
	</g>
	<g>
		<path fill="#117FC2" d="M203.703,17.853c6.653,0,8.278,0.8,8.278,4.078v6.203h-16.556v-6.203
			C195.426,18.653,197.051,17.853,203.703,17.853 M203.703,15.853c-5.677,0-10.277,0.4-10.277,6.078v8.203h20.556v-8.203
			C213.981,16.253,209.38,15.853,203.703,15.853L203.703,15.853z"/>
	</g>
</g>
<g>
	
		<line fill="#117FC2" stroke="#FFFFFF" stroke-width="2" stroke-miterlimit="10" x1="193.745" y1="78.393" x2="214.301" y2="78.393"/>
	
		<line fill="#117FC2" stroke="#FFFFFF" stroke-width="2" stroke-miterlimit="10" x1="193.745" y1="94.719" x2="214.301" y2="94.719"/>
	
		<line fill="#117FC2" stroke="#FFFFFF" stroke-width="2" stroke-miterlimit="10" x1="193.745" y1="86.556" x2="214.301" y2="86.556"/>
</g>
<g>
	<line fill="none" stroke="#117FC2" stroke-width="2" stroke-miterlimit="10" x1="193.745" y1="42.517" x2="214.301" y2="42.517"/>
	<line fill="none" stroke="#117FC2" stroke-width="2" stroke-miterlimit="10" x1="193.745" y1="58.843" x2="214.301" y2="58.843"/>
	<line fill="none" stroke="#117FC2" stroke-width="2" stroke-miterlimit="10" x1="193.745" y1="50.68" x2="214.301" y2="50.68"/>
</g>
<rect x="273.131" y="71.971" fill="#117FC2" width="30" height="30"/>
<g>
	
		<line fill="#117FC2" stroke="#FFFFFF" stroke-width="2" stroke-miterlimit="10" x1="277.854" y1="78.393" x2="298.409" y2="78.393"/>
	
		<line fill="#117FC2" stroke="#FFFFFF" stroke-width="2" stroke-miterlimit="10" x1="277.854" y1="94.719" x2="298.409" y2="94.719"/>
	
		<line fill="#117FC2" stroke="#FFFFFF" stroke-width="2" stroke-miterlimit="10" x1="277.854" y1="86.556" x2="298.409" y2="86.556"/>
</g>
<g>
	<line fill="none" stroke="#117FC2" stroke-width="2" stroke-miterlimit="10" x1="277.854" y1="42.517" x2="298.409" y2="42.517"/>
	<line fill="none" stroke="#117FC2" stroke-width="2" stroke-miterlimit="10" x1="277.854" y1="58.843" x2="298.409" y2="58.843"/>
	<line fill="none" stroke="#117FC2" stroke-width="2" stroke-miterlimit="10" x1="277.854" y1="50.68" x2="298.409" y2="50.68"/>
</g>
<text transform="matrix(1 0 0 1 275.29 135.4268)" fill="#117FC2" font-family="'Corbel'" font-size="46.032">€</text>
<g>
	<g>
		<path fill="#117FC2" d="M193.013,154.753h3.012c0.359-1.169,0.854-2.229,1.483-3.181c0.629-0.951,1.397-1.764,2.304-2.438
			s1.955-1.191,3.146-1.551c1.191-0.36,2.514-0.54,3.968-0.54c0.494,0,0.984,0.022,1.472,0.067s0.951,0.105,1.394,0.18
			c0.442,0.075,0.854,0.165,1.236,0.27c0.382,0.105,0.716,0.218,1,0.337v3.012c-0.719-0.239-1.498-0.438-2.337-0.596
			c-0.84-0.157-1.687-0.236-2.54-0.236c-1.813,0-3.354,0.375-4.619,1.124c-1.267,0.75-2.199,1.933-2.798,3.551h8.338v2.989h-8.99
			c-0.03,0.285-0.053,0.577-0.067,0.876c-0.015,0.3-0.022,0.607-0.022,0.922c0,0.494,0.015,0.959,0.045,1.394h7.327v2.989h-6.811
			c0.524,1.678,1.424,2.881,2.697,3.607c1.273,0.727,2.938,1.09,4.99,1.09c0.39,0,0.806-0.022,1.247-0.067
			c0.442-0.045,0.888-0.104,1.338-0.18c0.449-0.075,0.884-0.161,1.304-0.258c0.419-0.097,0.794-0.206,1.123-0.326v3.012
			c-0.704,0.27-1.517,0.479-2.438,0.629c-0.921,0.15-1.869,0.225-2.843,0.225c-3.192,0-5.698-0.674-7.519-2.023
			s-3.031-3.251-3.63-5.709h-2.81v-2.989h2.359c-0.015-0.435-0.022-0.701-0.022-0.798c0-0.097,0-0.236,0-0.416
			c0-0.375,0.008-0.719,0.022-1.034c0.016-0.314,0.038-0.629,0.067-0.944h-2.427V154.753z"/>
	</g>
	<g>
		<line fill="#117FC2" x1="219" y1="143.667" x2="189.022" y2="173.667"/>
		<polygon fill="#117FC2" points="191.315,173.667 188.315,173.667 216,143.667 219,143.667 		"/>
	</g>
</g>
</svg>
